<?xml version="1.0" encoding="UTF-8" standalone="no"?>
<svg
   xmlns:dc="http://purl.org/dc/elements/1.1/"
   xmlns:cc="http://creativecommons.org/ns#"
   xmlns:rdf="http://www.w3.org/1999/02/22-rdf-syntax-ns#"
   xmlns:svg="http://www.w3.org/2000/svg"
   xmlns="http://www.w3.org/2000/svg"
   xmlns:sodipodi="http://sodipodi.sourceforge.net/DTD/sodipodi-0.dtd"
   xmlns:inkscape="http://www.inkscape.org/namespaces/inkscape"
   version="1.1"
   x="0px"
   y="0px"
   viewBox="0 0 595.28 841.89"
   style="enable-background:new 0 0 595.28 841.89;"
   xml:space="preserve"
   id="svg1022"
   sodipodi:docname="doge2.svg"
   inkscape:version="1.0.1 (3bc2e813f5, 2020-09-07)"><title
   id="title1170">DOGE B&amp;W</title><metadata
   id="metadata1028"><rdf:RDF><cc:Work
       rdf:about=""><dc:format>image/svg+xml</dc:format><dc:type
         rdf:resource="http://purl.org/dc/dcmitype/StillImage" /><dc:title>DOGE B&amp;W</dc:title><cc:license
         rdf:resource="http://creativecommons.org/licenses/by-nc/4.0/" /><dc:date>2021</dc:date><dc:creator><cc:Agent><dc:title>Juan Pablo Garcia Coello</dc:title></cc:Agent></dc:creator><dc:rights><cc:Agent><dc:title>Non-Commercial</dc:title></cc:Agent></dc:rights><dc:publisher><cc:Agent><dc:title>Juan Pablo Garcia Coello</dc:title></cc:Agent></dc:publisher><dc:source>https://github/juanpaexpedite/FreeResources</dc:source></cc:Work><cc:License
       rdf:about="http://creativecommons.org/licenses/by-nc/4.0/"><cc:permits
         rdf:resource="http://creativecommons.org/ns#Reproduction" /><cc:permits
         rdf:resource="http://creativecommons.org/ns#Distribution" /><cc:requires
         rdf:resource="http://creativecommons.org/ns#Notice" /><cc:requires
         rdf:resource="http://creativecommons.org/ns#Attribution" /><cc:prohibits
         rdf:resource="http://creativecommons.org/ns#CommercialUse" /><cc:permits
         rdf:resource="http://creativecommons.org/ns#DerivativeWorks" /></cc:License></rdf:RDF></metadata><defs
   id="defs1026">
	
	
	
	
	
	
	
	
	
	
	
	
	
	
	
	
	
	
</defs><sodipodi:namedview
   pagecolor="#ffffff"
   bordercolor="#666666"
   borderopacity="1"
   objecttolerance="10"
   gridtolerance="10"
   guidetolerance="10"
   inkscape:pageopacity="0"
   inkscape:pageshadow="2"
   inkscape:window-width="2560"
   inkscape:window-height="1017"
   id="namedview1024"
   showgrid="false"
   inkscape:zoom="4.135287"
   inkscape:cx="183.84161"
   inkscape:cy="98.431786"
   inkscape:window-x="-5"
   inkscape:window-y="-5"
   inkscape:window-maximized="1"
   inkscape:current-layer="svg1022" />
<style
   type="text/css"
   id="style966">
	.st0{fill:#555555;}
	.st1{fill:#969696;}
	.st2{fill:#E6E6E6;}
	.st3{fill:#D3D3D3;}
	.st4{fill:#5A5A5A;}
	.st5{fill:#101010;}
</style>


<path
   id="left_side"
   d="m 55.68795,88.844242 c -1.183528,-0.03681 -0.59565,1.675271 -1.580698,3.302203 -2.321014,3.833455 -1.48763,4.658294 -2.202647,7.228314 -4.878951,10.158471 -3.45086,19.077761 -0.849178,25.465701 1.282796,0.60369 1.213166,-0.68541 0.234457,-3.23855 -1.444792,-3.08976 -0.989828,-9.37319 -0.04993,-13.9155 0.464978,-2.2472 0.68223,-3.85964 2.754687,-6.30927 2.705631,-2.011556 1.179251,-1.1413 2.501103,-1.728844 0.599104,-0.266292 1.209292,0.380644 1.499309,-0.02648 0.484659,-0.680337 -0.02199,-1.894744 -0.776817,-2.38249 -3.597199,-2.614507 -1.807858,-5.389072 -0.928589,-7.989464 -0.446369,-0.458717 0.09917,0.10587 -0.601699,-0.405639 z"
   sodipodi:nodetypes="cscccacsaccc"
   style="stroke-width:0.999996" /><path
   id="head"
   d="m 71.71525,59.435484 c -0.787222,-0.01418 -1.056333,0.942749 -1.198175,1.616497 -0.212763,1.014168 -0.27709,2.064573 -0.333827,3.100017 -0.205619,4.041509 -0.425013,8.869599 -1.771636,12.776838 -0.485482,0.400617 -0.993858,0.81399 -1.568016,1.286826 0.51063,0.198578 0.673305,0.326346 0.786779,0.290886 0.801406,-0.255315 1.646306,-0.454725 2.383882,-0.851881 1.148919,-0.617012 2.473975,-1.176954 3.239921,-2.141478 0.744669,-0.936156 1.489504,-1.078053 2.475304,-1.120605 1.148919,-0.04964 2.15605,-0.361752 2.893627,1.184323 0.47517,0.999984 1.255909,2.107015 0.447411,2.986433 -1.248207,1.361681 -1.900402,2.850243 -1.843666,4.701278 0.0071,0.382973 -0.312605,0.816033 -0.56792,1.163545 -0.326236,0.432617 -0.843294,0.73719 -1.091517,1.198175 -0.524814,0.971616 -0.617177,2.226862 -1.943398,2.602743 -0.0851,0.02128 -0.127491,0.19143 -0.184228,0.297812 -0.787221,1.53189 -1.567629,3.064058 -2.411587,4.716513 0.531907,-0.113472 1.006356,-0.219357 1.743934,-0.375384 -0.517723,0.475171 -0.829221,0.750932 -1.205101,1.098444 0.319144,0.02837 0.531463,0.05057 0.786778,0.07895 -1.851034,1.645362 -3.184347,3.836878 -3.014137,4.666654 1.943232,-1.390053 3.950736,-2.837676 6.128006,-4.397935 0.07092,0.680839 0.09907,0.972176 0.127437,1.277137 1.32622,-1.368774 2.595204,-2.674554 3.921424,-4.043327 0.645381,2.219823 0.632194,2.212844 0.31305,3.127723 -0.808497,2.312027 -1.375754,3.355174 -1.659438,4.879968 -0.141842,0.744674 -0.206446,1.113574 -0.08588,1.177404 0.312052,0.15603 0.531743,-2.964496 7.099015,-8.687812 2.085073,-1.815574 3.567093,-4.248884 6.333007,-4.284344 9.687781,-0.120566 14.220811,5.681485 16.086011,8.716904 0.0851,0.141836 0.16993,0.276472 0.24795,0.418318 0.32262,0.491355 0.99897,0.595371 3.13465,0.156517 1.02836,-0.120558 2.04883,-0.249103 3.10556,-0.376766 0.078,0.390066 0.1419,0.737916 0.23409,1.22727 0.46099,-0.41844 0.77371,-0.709428 1.21342,-1.113685 0.14184,0.87942 0.24838,1.525685 0.34768,2.149789 0.60991,0.411345 1.28355,0.850111 2.01404,1.339469 -0.28368,0.44681 -0.6178,0.97173 -0.9724,1.532 0.61702,0.68793 1.19879,1.34102 1.82289,2.04314 -0.48935,0.34751 -0.8439,0.60243 -1.18432,0.84356 0.14184,0.91488 -0.26933,2.03471 0.87958,2.27584 -0.36879,1.04963 -0.71651,2.02834 -0.93637,2.65953 0.5319,0.75885 1.2056,1.27675 1.18432,1.7661 -0.071,1.71628 -1.43183,3.60976 -2.57365,3.78707 0.73757,2.21982 0.19099,4.12067 -1.57494,5.84404 -0.0922,-0.52481 -0.14916,-0.89266 -0.22717,-1.33947 -0.46099,0.6312 -0.61629,2.92123 -0.14822,3.16236 0.97162,0.50354 0.44697,1.07882 0.17037,1.56109 -0.37587,0.65247 -0.86639,1.25413 -1.36993,1.8215 -0.14184,0.15602 -0.50326,0.11436 -0.95715,0.19946 -0.22695,0.37589 -0.72368,0.9852 -0.99317,1.68022 -0.26241,0.68084 -0.26906,1.46103 -0.43217,2.18442 -0.0567,0.26241 -0.17697,0.56792 -0.36846,0.74522 -0.68084,0.64539 -1.40462,1.24854 -1.99326,1.75918 2.04961,0.14893 3.04943,-2.39829 5.50329,-2.78836 -1.31912,1.55317 -2.41774,2.83694 -3.57375,4.19153 h 1.09844 c -0.31205,0.43971 -0.55257,0.77343 -0.7937,1.10675 0.11347,0 0.2342,0.007 0.34768,0.007 0.0355,0.31915 0.0631,0.64566 0.0914,0.99317 0.37588,-0.14184 0.76688,-0.29034 1.14277,-0.43217 0.79431,1.02125 0.75148,2.00595 0.0706,2.94211 -0.43971,0.60991 -1.02114,1.12171 -1.48213,1.72453 -0.51772,0.68794 -0.97216,1.41826 -1.45443,2.13456 0.0922,0.0922 0.17791,0.19037 0.2701,0.28257 0.86524,-0.31914 1.73043,-0.64494 2.60275,-0.96408 v 0.99317 c 1.5248,-1.31203 3.95058,-0.68788 4.89382,-2.78004 0.0212,-0.0496 0.15536,-0.11409 0.205,-0.0928 0.95743,0.38297 1.32695,-0.37505 1.80211,-0.92114 0.47518,-0.54609 0.94951,-0.94374 1.45305,0.19808 1.09218,-0.88651 2.07821,-1.68082 3.064,-2.48223 -0.0496,-0.071 -0.0999,-0.13409 -0.14959,-0.20501 -0.29078,0.10639 -0.57374,0.21914 -0.85743,0.32552 -0.078,-0.12056 -0.14931,-0.23403 -0.22024,-0.3546 1.19147,-0.87233 2.38277,-1.7446 3.55297,-2.60274 0.21276,0.19858 0.35538,0.34048 0.61779,0.58869 0.9007,-1.70918 1.63733,-3.34735 2.58057,-4.85087 0.94325,-1.51062 1.80272,-3.00744 2.24953,-5.00741 -0.59574,0.31915 -0.92214,0.49729 -1.5888,0.85189 0.31206,-1.22693 0.51761,-2.14945 0.77292,-3.05015 0.23404,-0.84396 -0.0922,-1.41055 -0.766,-1.86445 -0.13475,-0.0851 -0.32673,-0.20649 -0.33382,-0.31997 -0.071,-1.31204 -0.12727,-2.62324 -0.13436,-3.93528 0,-0.24113 0.22623,-0.47623 0.32552,-0.72445 0.071,-0.1773 0.19215,-0.38956 0.14959,-0.55268 -0.95743,-3.49639 -1.2415,-7.17049 -2.87978,-10.50376 -0.52481,-1.06382 -0.8296,-2.40373 -0.71613,-3.56683 0.13475,-1.397146 0.13525,-2.709845 -0.19808,-4.050245 -0.15602,-0.624104 -0.24916,-1.261455 -0.43355,-1.871376 -0.58865,-1.957418 -0.69409,-4.021378 -1.87137,-5.844045 -0.93616,-1.460967 -1.49693,-3.177808 -2.10685,-4.823172 -0.19858,-0.546091 -0.16296,-1.262282 -0.007,-1.836741 0.75177,-2.801374 1.16953,-5.623526 0.91422,-8.531281 -0.21277,-2.432586 -0.4965,-4.830487 -1.29791,-7.177968 -0.38297,-1.127642 -0.13431,-2.474861 -1.31868,-3.262083 -0.59574,-0.397157 -1.19103,-0.822018 -1.8506,-1.091517 -0.50353,-0.205669 -1.14205,-0.07137 -1.64559,-0.277033 -1.31913,-0.531908 -2.06413,0.53185 -3.00027,1.00702 -0.20568,0.106381 -0.20562,0.617067 -0.29782,0.943303 -0.16312,0.553183 -0.24734,1.155899 -0.50974,1.659437 -0.5461,1.042537 -1.12864,2.028337 -2.08607,2.836835 -1.40424,1.184379 -2.58895,2.624627 -3.8868,3.936662 -0.078,0.07802 -0.63308,0.592356 -0.86712,0.613632 -0.39363,0.383311 -1.63674,0.84983 -3.14573,1.166316 -2.26947,0.03546 -4.546963,-0.234925 -6.816427,-0.376767 -0.914882,-0.05674 -1.836239,-0.04909 -2.744032,-0.141288 -0.666656,-0.07092 -1.333702,-0.241685 -1.993266,-0.390619 -0.241131,-0.04964 -0.461149,-0.205725 -0.70228,-0.234094 -1.695016,-0.212762 -3.382876,-0.424361 -5.084977,-0.580387 -1.432597,-0.127658 -2.886367,-0.333606 -3.787062,-1.525076 -1.028352,-1.361681 -2.013819,-2.823648 -2.673384,-4.390999 -1.001631,-2.378875 -2.559177,-4.297565 -4.331436,-6.076756 0.0096,0.0027 0.01664,0.0042 0.02632,0.007 -0.64538,-0.914879 -1.709691,-1.383456 -2.638756,-1.397639 z"
   style="stroke-width:0.999996" /><path
   d="m 84.169444,143.51942 c -0.04964,1.09928 -1.113457,1.18439 -2.34748,1.09928 -0.03546,0.38297 -0.06383,0.73048 -0.06383,0.74466 -0.390065,0.40425 -0.801406,0.6383 -0.794314,0.85815 0.02837,1.22693 -0.262407,2.31201 -1.375865,3.25526 -0.02128,-0.51062 -0.04964,-1.02125 -0.0922,-1.90776 -0.297868,0.42552 -0.624104,0.67375 -0.659564,0.96451 -0.297867,2.16309 -1.19147,3.9503 -3.326189,5.39 -0.453894,-1.78721 -0.886511,-3.47513 -1.312036,-5.15595 -0.04964,-0.21277 -0.01418,-0.49645 -0.13475,-0.6312 -0.54609,-0.58864 -1.141825,-1.13473 -1.829758,-1.80139 -0.248223,0.27659 -0.538999,0.60283 -1.014169,1.14892 -1.106364,-1.56735 -3.170162,-2.29784 -3.290728,-4.60276 -0.05674,-1.01417 -0.517722,-1.48934 -1.645364,-1.29077 -0.375881,0.071 -0.900694,-0.24112 -1.248207,-0.51772 -1.90068,-1.49642 -3.765898,-3.04251 -5.645301,-4.5673 -0.0922,-0.078 -0.226947,-0.12057 -0.283683,-0.21986 -0.723393,-1.26948 -1.439694,-2.54605 -2.269468,-4.02121 0.390065,0.0922 0.602827,0.078 0.659564,0.17021 1.248207,2.02124 3.723345,2.65954 5.127578,4.53894 0.418434,0.56027 1.212747,0.92196 1.914864,1.1631 1.985784,0.68793 3.758806,2.28365 6.106287,1.53189 0.106381,-0.0355 0.297867,-0.0638 0.347512,-0.007 1.304944,1.39004 2.992861,0.42552 4.38291,0.42552 1.255299,0 2.567335,-0.14894 3.893555,-0.14894 1.702101,0.007 3.418386,-0.36878 5.106302,-0.69501 3.007043,-0.58156 6.219759,-0.21986 8.921843,-2.17019 0.05674,0.12057 0.113474,0.23404 0.163119,0.3546 -0.34042,0.2766 -0.652472,0.60283 -1.028352,0.82978 -0.687933,0.42553 -1.638272,0.6312 -2.07089,1.22693 -1.028353,1.41842 -2.744638,1.87231 -3.893556,3.10634 -0.432617,0.47517 -1.304944,0.55318 -2.297834,0.92906 z"
   id="chin"
   style="stroke-width:0.999996" /><path
   id="nose"
   d="m 64.02489,102.87866 c -1.09938,-0.0196 -2.237554,0.15764 -3.28009,0.45019 -1.418418,0.39715 -2.496464,1.447 -2.716319,3.06399 -0.02837,0.21986 -0.05785,0.67264 0.105268,1.16909 0.368788,1.14183 1.504351,1.62403 1.738398,1.71623 0.105892,0.0427 0.207635,0.0725 0.313044,0.11359 -0.0054,0.012 -0.0098,0.024 -0.01523,0.036 h -1.907388 c 0.666655,1.44679 1.23364,2.6592 1.730086,3.7372 0.609919,0.30496 1.021813,0.53883 1.454431,0.71614 0.609919,0.25531 1.226151,0.54708 1.864439,0.66764 1.077997,0.20568 1.773688,-0.60388 2.631831,-1.07904 1.686044,-0.93146 3.155786,-2.06905 4.298194,-3.55713 0.180763,-0.13612 0.35142,-0.28155 0.495893,-0.4488 0.156026,-0.18439 1.332866,-1.54635 0.964077,-2.94349 -0.226947,-0.86524 -0.880029,-1.45421 -1.865829,-1.93647 -0.225159,-0.11044 -0.457843,-0.2134 -0.688429,-0.31859 -0.05149,-0.0262 -0.104515,-0.0472 -0.156522,-0.072 -1.248235,-0.55875 -2.562634,-1.0237 -3.885414,-1.22588 -0.352832,-0.0532 -0.713975,-0.0821 -1.080437,-0.0886 z"
   style="stroke-width:0.999996" /><path
   d="m 90.091335,101.54136 c -1.645364,-0.39715 -3.595688,-0.63829 -5.326155,-1.37586 -0.921971,-0.397162 -1.546075,-1.616995 -2.127626,-2.574434 -0.127658,-0.212759 0.368788,-1.028352 0.765945,-1.312034 1.49643,-1.063814 3.056687,-2.049612 4.624038,-2.999952 1.914864,-1.15601 3.936108,-0.9858 5.659487,0.51063 0.872324,0.758854 1.695005,1.602814 2.382944,2.524783 0.276586,0.368787 0.368787,1.312035 0.120558,1.567351 -1.120545,1.127641 -2.333291,2.177276 -3.638237,3.077966 -0.567367,0.39716 -1.439694,0.3546 -2.460954,0.58155 z m -0.893603,-6.148836 c 0.262407,0.141837 0.460986,0.340422 0.666656,0.347509 0.2695,0.007 0.538999,-0.141836 0.801406,-0.226942 -0.08511,-0.234046 -0.09929,-0.560277 -0.2695,-0.695028 -0.659564,-0.517723 -1.446785,-0.929064 -2.163086,-0.234039 -0.730484,0.709212 -1.354588,1.553171 -1.893587,2.4184 -0.212762,0.340422 -0.219855,0.95743 -0.06383,1.354591 0.680842,1.723375 2.425495,2.758815 4.269437,2.602795 0.34042,-0.0284 0.666656,-0.19148 0.999985,-0.29787 -2.836836,-0.55318 -3.843912,-2.666625 -2.347481,-5.269416 z"
   id="righteye"
   style="stroke-width:0.999996" /><path
   d="m 84.318378,120.47014 c -2.333296,0.72339 -4.432554,2.15599 -7.049534,2.04962 -0.609919,-0.0213 -1.354589,0.0496 -1.815574,0.38297 -1.538983,1.12054 -3.106335,0.58155 -4.694961,0.30496 -1.297852,-0.22695 -2.68081,-0.74467 -3.886464,-0.48936 -1.645365,0.35461 -2.737546,-0.66666 -4.092134,-0.96452 -0.91488,-0.19858 -1.957416,-0.36879 -2.453863,-1.36168 -0.304959,-0.60992 -0.666655,-1.2553 -0.723393,-1.90777 -0.06383,-0.72339 0.333329,-1.25531 1.2553,-1.20566 1.843943,0.0922 3.602781,0.27659 5.354525,1.08509 2.666626,1.23403 5.468,2.17018 8.248098,3.1418 0.453893,0.15602 1.070904,-0.12057 1.602811,-0.24823 0.773037,-0.1773 1.524799,-0.45389 2.304929,-0.58864 1.510614,-0.2695 3.035413,-0.48226 4.560212,-0.68793 0.432617,-0.0567 0.88651,-0.007 1.32622,-0.007 0.02128,0.17021 0.04255,0.33333 0.06383,0.49645 z"
   id="mouth"
   style="stroke-width:0.999996" /><path
   d="m 63.233604,93.094686 c 0.659564,2.155993 1.241115,2.680809 3.361649,2.687904 -1.765929,-1.815577 -2.127626,-3.716257 -0.829774,-5.872251 -0.567367,0.432617 -1.127642,0.865234 -1.829758,1.411325 0.0851,-1.524799 0.929063,-2.694993 2.00706,-3.049597 1.312036,-0.425523 2.851019,-0.09929 3.574412,0.9858 1.46097,2.198547 1.879403,1.943231 0.354605,4.24816 -0.87942,1.32622 -1.794299,2.4184 -3.297821,2.957398 -0.879418,0.319144 -1.744653,0.347518 -2.439678,-0.411335 -0.751761,-0.851055 -1.241115,-1.794302 -0.900695,-2.957404 z"
   id="lefteye"
   style="stroke-width:0.999996" /></svg>
